<svg id="圖層_1" data-name="圖層 1" xmlns="http://www.w3.org/2000/svg" viewBox="0 0 300.28 300.28"><defs><style>.cls-1{fill:#8b8b8b;}.cls-2{fill:#f8fcfe;}</style></defs><title>icon04</title><circle class="cls-1" cx="150.14" cy="150.14" r="150.14"/><path class="cls-2" d="M495.4,209.76a9.49,9.49,0,1,1-9.49-9.51,9.49,9.49,0,0,1,9.49,9.51h0Zm-80-27.54A15.77,15.77,0,1,0,431.14,198a15.77,15.77,0,0,0-15.74-15.77h0Zm106.78,30.25c-0.62,15-21.21,42.23-21.21,42.23-16.44,23.67-8.39,41.93-8.39,41.93-33.16,7.49-60.35,56-60.35,56-1.21-7.19-17.15-37.53-17.15-37.53-6.68-8.4-17.84-5.44-23.91-4.7-17.32,2.14-21.63-3-21.63-3-3.78-2.29-2-12-2-12,1.41-5-.88-7.47-2.28-9.4-3.78-5.35-1.58-7.78-1.58-7.78,1.17-1.53.38-2.32,0.38-2.32-4.19-1.38-4.49-3.67-4.49-3.67l0.12-7.73c0.67-5.25-1.7-5.58-1.7-5.58-9.58-.17-9.38-6.4-9.38-6.4-0.38-3.38,11.16-23.76,11.16-23.76,5.36-10.37-2.28-16.59-2.81-21.94-2.37-24.76,6-39.9,17.32-51.89,18.72-19.85,42.81-23.58,58.57-23.46,40.35,0.29,56.67,13.13,69,27,25.72,28.72,20.28,54,20.28,54h0Zm-66.66-23.52h-7.65a32.83,32.83,0,0,0-3.14-7.61l5.42-5.44-12.74-12.74L432,168.56a32.43,32.43,0,0,0-7.61-3.14v-7.67h-18v7.67a33.71,33.71,0,0,0-7.61,3.14l-5.39-5.41L380.66,175.9l5.42,5.44a32.6,32.6,0,0,0-3.14,7.61H375.3V207h7.64a33.32,33.32,0,0,0,3.14,7.61L380.66,220l12.74,12.75,5.39-5.41a34.13,34.13,0,0,0,7.61,3.14v7.66h18v-7.66a35.57,35.57,0,0,0,7.61-3.14l5.39,5.41L450.16,220l-5.42-5.43a33,33,0,0,0,3.14-7.61h7.65V188.94ZM511,203.74h-4.6a20.83,20.83,0,0,0-1.79-4.28l3.25-3.26-8.47-8.49L496.19,191a20.78,20.78,0,0,0-4.28-1.79v-4.61h-12v4.61a20.35,20.35,0,0,0-4.25,1.79l-3.26-3.26-8.5,8.49,3.26,3.26a20.38,20.38,0,0,0-1.76,4.28h-4.6v12h4.6a21.18,21.18,0,0,0,1.76,4.29l-3.26,3.26,8.5,8.52,3.26-3.26a21.55,21.55,0,0,0,4.25,1.77v4.61h12v-4.61a22,22,0,0,0,4.28-1.77l3.25,3.26,8.47-8.52L504.66,220a20,20,0,0,0,1.79-4.29H511v-12Zm0,0" transform="translate(-285.51 -90.95)"/></svg>