<svg id="圖層_1" data-name="圖層 1" xmlns="http://www.w3.org/2000/svg" viewBox="0 0 304.36 304.36"><defs><style>.cls-1{fill:#94b231;}.cls-2{fill:#fff;}</style></defs><title>icon05</title><circle class="cls-1" cx="152.18" cy="152.18" r="152.18"/><path class="cls-2" d="M421.82,237.3a3.79,3.79,0,0,0-5.34-.48l-22.72,18.94a3.79,3.79,0,0,0,0,5.81l22.72,18.94a3.79,3.79,0,1,0,4.85-5.82l-19.23-16,19.23-16A3.79,3.79,0,0,0,421.82,237.3Zm32,42.73a3.79,3.79,0,0,0,5.34.48l22.72-18.94a3.79,3.79,0,0,0,0-5.81l-22.72-18.94a3.79,3.79,0,1,0-4.85,5.82l19.23,16-19.23,16A3.79,3.79,0,0,0,453.87,280Zm-3.17-51.37a3.79,3.79,0,0,0-5,2l-22.72,53a3.79,3.79,0,1,0,7,3l22.72-53A3.79,3.79,0,0,0,450.7,228.66Zm82.75,68-7.26-1.82,3.85-6.41a3.79,3.79,0,0,0-.57-4.63l-10.71-10.71a3.78,3.78,0,0,0-4.63-.57l-6.41,3.85-1.82-7.26a3.79,3.79,0,0,0-3.67-2.87H487.08a3.79,3.79,0,0,0-3.67,2.87l-1.82,7.26-6.41-3.85a3.79,3.79,0,0,0-4.63.57L459.84,283.8a3.79,3.79,0,0,0-.57,4.63l3.85,6.41-7.26,1.82a3.79,3.79,0,0,0-2.87,3.67v15.15a3.79,3.79,0,0,0,2.87,3.67l7.26,1.82-3.85,6.42a3.79,3.79,0,0,0,.57,4.63l10.71,10.71a3.8,3.8,0,0,0,4.63.57l6.41-3.85,1.82,7.26a3.79,3.79,0,0,0,3.67,2.87h15.15a3.79,3.79,0,0,0,3.67-2.87l1.82-7.26,6.41,3.85a3.79,3.79,0,0,0,4.63-.57L529.47,332a3.79,3.79,0,0,0,.57-4.63L526.19,321l7.26-1.82a3.79,3.79,0,0,0,2.87-3.67V300.33A3.79,3.79,0,0,0,533.45,296.66Zm-38.79,30.19a18.94,18.94,0,1,1,18.94-18.94A19,19,0,0,1,494.66,326.85Zm-44.84-2.39a11.33,11.33,0,0,1-2.78-3.3,3.79,3.79,0,0,0-3.28-1.89H369.68V205.63H506V257a3.79,3.79,0,0,0,1.89,3.28,11.35,11.35,0,0,1,3.3,2.78,3.76,3.76,0,0,0,3.48,1.43,11.12,11.12,0,0,1,1.38-.08l1,0.11a3.79,3.79,0,0,0,4.11-3.77V182.91A15.17,15.17,0,0,0,506,167.75H369.68a15.17,15.17,0,0,0-15.15,15.15V319.27a15.17,15.17,0,0,0,15.15,15.15h77.77a3.78,3.78,0,0,0,3.77-4.11,11.39,11.39,0,0,1,0-2.4A3.79,3.79,0,0,0,449.82,324.46ZM403.77,182.91a3.79,3.79,0,1,1-3.79,3.79A3.79,3.79,0,0,1,403.77,182.91Zm-15.15,0a3.79,3.79,0,1,1-3.79,3.79A3.79,3.79,0,0,1,388.62,182.91Zm-15.15,0a3.79,3.79,0,1,1-3.79,3.79A3.79,3.79,0,0,1,373.47,182.91Z" transform="translate(-287.23 -106.49)"/></svg>